Abduction_states
version=1
nRows=14
nColumns=41
inDegrees=yes

# SIMM Motion File Header:
name Abduction_states
datacolumns 41
datarows 14
otherdata 1
range 2.07057268 4.36773402
endheader
time	/jointset/ground_thorax/thorax_tilt/value	/jointset/ground_thorax/thorax_tilt/speed	/jointset/ground_thorax/thorax_list/value	/jointset/ground_thorax/thorax_list/speed	/jointset/ground_thorax/thorax_rotation/value	/jointset/ground_thorax/thorax_rotation/speed	/jointset/ground_thorax/thorax_tx/value	/jointset/ground_thorax/thorax_tx/speed	/jointset/ground_thorax/thorax_ty/value	/jointset/ground_thorax/thorax_ty/speed	/jointset/ground_thorax/thorax_tz/value	/jointset/ground_thorax/thorax_tz/speed	/jointset/sternoclavicular/sternoclavicular_r2/value	/jointset/sternoclavicular/sternoclavicular_r2/speed	/jointset/sternoclavicular/sternoclavicular_r3/value	/jointset/sternoclavicular/sternoclavicular_r3/speed	/jointset/unrotscap/unrotscap_r3/value	/jointset/unrotscap/unrotscap_r3/speed	/jointset/unrotscap/unrotscap_r2/value	/jointset/unrotscap/unrotscap_r2/speed	/jointset/acromioclavicular/acromioclavicular_r2/value	/jointset/acromioclavicular/acromioclavicular_r2/speed	/jointset/acromioclavicular/acromioclavicular_r3/value	/jointset/acromioclavicular/acromioclavicular_r3/speed	/jointset/acromioclavicular/acromioclavicular_r1/value	/jointset/acromioclavicular/acromioclavicular_r1/speed	/jointset/unrothum/unrothum_r1/value	/jointset/unrothum/unrothum_r1/speed	/jointset/unrothum/unrothum_r3/value	/jointset/unrothum/unrothum_r3/speed	/jointset/unrothum/unrothum_r2/value	/jointset/unrothum/unrothum_r2/speed	/jointset/shoulder0/elv_angle/value	/jointset/shoulder0/elv_angle/speed	/jointset/shoulder1/shoulder_elv/value	/jointset/shoulder1/shoulder_elv/speed	/jointset/shoulder1/shoulder1_r2/value	/jointset/shoulder1/shoulder1_r2/speed	/jointset/shoulder2/shoulder_rot/value	/jointset/shoulder2/shoulder_rot/speed
      2.07057268	     -0.00000000	     -0.00000000	      0.00000000	      0.00000000	     -0.00000000	     -0.00000000	      0.00000000	     -0.00000000	      0.00000000	      0.00000000	     -0.00000000	     -0.00000000	    -11.14429819	     15.28421081	      4.72019501	     -6.47366522	     -4.72019501	      6.47366522	     11.14429819	    -15.28421081	     -2.25647632	      3.09471796	     18.23580450	    -25.01008814	      8.19705305	    -11.24211544	     -8.19705305	     11.24211544	    -18.23580450	     25.01008814	      2.25647632	     -3.09471796	     30.00000000	      0.00000000	     46.05125511	    -63.15849403	    -30.00000000	     -0.00000000	      0.00000000	      0.00000000
      2.12977568	     -0.00000000	     -0.00000000	      0.00000000	      0.00000000	     -0.00000000	     -0.00000000	     -0.00000000	     -0.00000000	      0.00000000	      0.00000000	     -0.00000000	     -0.00000000	    -10.25722457	     14.65225445	      4.34447279	     -6.20599855	     -4.34447279	      6.20599855	     10.25722457	    -14.65225445	     -2.07686334	      2.96676064	     16.78425493	    -23.97599588	      7.54457683	    -10.77728763	     -7.54457683	     10.77728763	    -16.78425493	     23.97599588	      2.07686334	     -2.96676064	     30.00000000	      0.00000000	     42.38562690	    -60.54707941	    -30.00000000	     -0.00000000	      0.00000000	     -0.00000000
      2.18897868	     -0.00000000	     -0.00000000	      0.00000000	      0.00000000	     -0.00000000	     -0.00000000	     -0.00000000	     -0.00000000	      0.00000000	      0.00000000	     -0.00000000	     -0.00000000	     -9.41175373	     13.89674278	      3.98637153	     -5.88599971	     -3.98637153	      5.88599971	      9.41175373	    -13.89674278	     -1.90567401	      2.81378607	     15.40078145	    -22.73972574	      6.92270103	    -10.22158020	     -6.92270103	     10.22158020	    -15.40078145	     22.73972574	      1.90567401	     -2.81378607	     30.00000000	      0.00000000	     38.89191264	    -57.42510078	    -30.00000000	     -0.00000000	      0.00000000	      0.00000000
      2.26734938	     -0.00000000	     -0.00000000	      0.00000000	      0.00000000	     -0.00000000	     -0.00000000	     -0.00000000	     -0.00000000	      0.00000000	      0.00000000	     -0.00000000	     -0.00000000	     -8.36430054	     12.82665945	      3.54272014	     -5.43276328	     -3.54272014	      5.43276328	      8.36430054	    -12.82665945	     -1.69358768	      2.59711763	     13.68679720	    -20.98871099	      6.15225957	     -9.43449341	     -6.15225957	      9.43449341	    -13.68679720	     20.98871099	      1.69358768	     -2.59711763	     30.00000000	      0.00000000	     34.56355269	    -53.00322695	    -30.00000000	     -0.00000000	      0.00000000	     -0.00000000
      2.36493471	     -0.00000000	     -0.00000000	      0.00000000	      0.00000000	     -0.00000000	     -0.00000000	     -0.00000000	     -0.00000000	      0.00000000	      0.00000000	     -0.00000000	     -0.00000000	     -7.17893907	     11.46550992	      3.04065737	     -4.85624503	     -3.04065737	      4.85624503	      7.17893907	    -11.46550992	     -1.45357794	      2.32151466	     11.74714883	    -18.76141446	      5.28038136	     -8.43331643	     -5.28038136	      8.43331643	    -11.74714883	     18.76141446	      1.45357794	     -2.32151466	     30.00000000	      0.00000000	     29.66531844	    -47.37858885	    -30.00000000	     -0.00000000	      0.00000000	      0.00000000
      2.50001587	     -0.00000000	     -0.00000000	      0.00000000	      0.00000000	     -0.00000000	     -0.00000000	     -0.00000000	     -0.00000000	      0.00000000	      0.00000000	     -0.00000000	     -0.00000000	     -5.75743348	      9.58340524	      2.43857517	     -4.05907495	     -2.43857517	      4.05907495	      5.75743348	     -9.58340524	     -1.16575419	      1.94042968	      9.42108956	    -15.68166082	      4.23481020	     -7.04895721	     -4.23481020	      7.04895721	     -9.42108956	     15.68166082	      1.16575419	     -1.94042968	     30.00000000	      0.00000000	     23.79127276	    -39.60122313	    -30.00000000	     -0.00000000	      0.00000000	      0.00000000
      2.71197826	     -0.00000000	     -0.00000000	      0.00000000	      0.00000000	     -0.00000000	     -0.00000000	     -0.00000000	     -0.00000000	      0.00000000	      0.00000000	     -0.00000000	     -0.00000000	     -4.03608339	      6.66702173	      1.70949308	     -2.82383351	     -1.70949308	      2.82383351	      4.03608339	     -6.66702173	     -0.81721849	      1.34992589	      6.60438427	    -10.90948059	      2.96869207	     -4.90384678	     -2.96869207	      4.90384678	     -6.60438427	     10.90948059	      0.81721849	     -1.34992589	     30.00000000	      0.00000000	     16.67818849	    -27.54993749	    -30.00000000	     -0.00000000	      0.00000000	      0.00000000
      3.11138167	     -0.00000000	     -0.00000000	      0.00000000	      0.00000000	     -0.00000000	     -0.00000000	     -0.00000000	     -0.00000000	      0.00000000	      0.00000000	     -0.00000000	     -0.00000000	     -2.44829370	      1.31589313	      1.03698084	     -0.55734978	     -1.03698084	      0.55734978	      2.44829370	     -1.31589313	     -0.49572586	      0.26643954	      4.00622852	     -2.15324190	      1.80081267	     -0.96788919	     -1.80081267	      0.96788919	     -4.00622852	      2.15324190	      0.49572586	     -0.26643954	     30.00000000	      0.00000000	     10.11701194	     -5.43762641	    -30.00000000	     -0.00000000	      0.00000000	      0.00000000
      3.84421082	     -0.00000000	     -0.00000000	      0.00000000	      0.00000000	     -0.00000000	     -0.00000000	     -0.00000000	     -0.00000000	      0.00000000	      0.00000000	     -0.00000000	     -0.00000000	     -4.93596414	     -7.99417394	      2.09063980	      3.38595211	     -2.09063980	     -3.38595211	      4.93596414	      7.99417394	     -0.99942464	     -1.61864515	      8.07689057	     13.08114613	      3.63058841	      5.88001745	     -3.63058841	     -5.88001745	     -8.07689057	    -13.08114613	      0.99942464	      1.61864515	     30.00000000	     -0.00000000	     20.39673918	     33.03408948	    -30.00000000	      0.00000000	     -0.00000000	     -0.00000000
      3.93924626	     -0.00000000	     -0.00000000	      0.00000000	      0.00000000	     -0.00000000	     -0.00000000	     -0.00000000	     -0.00000000	      0.00000000	      0.00000000	     -0.00000000	     -0.00000000	     -5.75081176	     -9.15210690	      2.43577052	      3.87639748	     -2.43577052	     -3.87639748	      5.75081176	      9.15210690	     -1.16441344	     -1.85310121	      9.41025421	     14.97591228	      4.22993967	      6.73172097	     -4.22993967	     -6.73172097	     -9.41025421	    -14.97591228	      1.16441344	      1.85310121	     30.00000000	     -0.00000000	     23.76391002	     37.81898173	    -30.00000000	      0.00000000	     -0.00000000	     -0.00000000
      4.08599739	     -0.00000000	     -0.00000000	      0.00000000	      0.00000000	     -0.00000000	     -0.00000000	     -0.00000000	     -0.00000000	      0.00000000	      0.00000000	     -0.00000000	     -0.00000000	     -7.22362501	    -10.91419916	      3.05958421	      4.62273600	     -3.05958421	     -4.62273600	      7.22362501	     10.91419916	     -1.46262587	     -2.20988630	     11.82026999	     17.85928540	      5.31324956	      8.02780650	     -5.31324956	     -8.02780650	    -11.82026999	    -17.85928540	      1.46262587	      2.20988630	     30.00000000	     -0.00000000	     29.84997283	     45.10042363	    -30.00000000	      0.00000000	     -0.00000000	     -0.00000000
      4.20031497	     -0.00000000	     -0.00000000	      0.00000000	      0.00000000	     -0.00000000	     -0.00000000	     -0.00000000	     -0.00000000	      0.00000000	      0.00000000	     -0.00000000	     -0.00000000	     -8.54824279	    -12.25221330	      3.62062934	      5.18945519	     -3.62062934	     -5.18945519	      8.54824279	     12.25221330	     -1.73083195	     -2.48080486	     13.98778833	     20.04872469	      6.28755605	      9.01196653	     -6.28755605	     -9.01196653	    -13.98778833	    -20.04872469	      1.73083195	      2.48080486	     30.00000000	     -0.00000000	     35.32365182	     50.62946006	    -30.00000000	      0.00000000	     -0.00000000	     -0.00000000
      4.29193308	     -0.00000000	     -0.00000000	      0.00000000	      0.00000000	     -0.00000000	     -0.00000000	     -0.00000000	     -0.00000000	      0.00000000	      0.00000000	     -0.00000000	     -0.00000000	     -9.71781034	    -13.26309243	      4.11600256	      5.61761554	     -4.11600256	     -5.61761554	      9.71781034	     13.26309243	     -1.96764377	     -2.68548575	     15.90159258	     21.70286152	      7.14781725	      9.75550638	     -7.14781725	     -9.75550638	    -15.90159258	    -21.70286152	      1.96764377	      2.68548575	     30.00000000	     -0.00000000	     40.15662138	     54.80668608	    -30.00000000	      0.00000000	     -0.00000000	     -0.00000000
      4.36773402	     -0.00000000	     -0.00000000	      0.00000000	      0.00000000	     -0.00000000	     -0.00000000	     -0.00000000	     -0.00000000	      0.00000000	      0.00000000	     -0.00000000	     -0.00000000	    -10.75123516	    -13.97189989	      4.55371220	      5.91783269	     -4.55371220	     -5.91783269	     10.75123516	     13.97189989	     -2.17688966	     -2.82900374	     17.59262172	     22.86270794	      7.90794031	     10.27686110	     -7.90794031	    -10.27686110	    -17.59262172	    -22.86270794	      2.17688966	      2.82900374	     30.00000000	     -0.00000000	     44.42701231	     57.73567029	    -30.00000000	      0.00000000	     -0.00000000	     -0.00000000
